<svg width="200" height="200" viewBox="0 0 200 200" fill="none" xmlns="http://www.w3.org/2000/svg">
<path d="M99.9997 16.6667C146.023 16.6667 183.333 53.9761 183.334 99.9997C183.334 146.023 146.023 183.334 99.9997 183.334C53.9761 183.333 16.6667 146.023 16.6667 99.9997C16.6668 53.9762 53.9762 16.6669 99.9997 16.6667ZM99.9997 33.3337C63.1809 33.3339 33.3338 63.181 33.3337 99.9997C33.3337 136.819 63.1808 166.667 99.9997 166.667C136.819 166.667 166.667 136.819 166.667 99.9997C166.666 63.1809 136.819 33.3337 99.9997 33.3337ZM116.646 123.608C116.646 137.071 105.744 147.982 92.2809 147.982C78.8187 147.981 67.9157 137.07 67.9157 123.608V115.267H84.5827V123.608C84.5827 127.866 88.0235 131.314 92.2809 131.315C96.5389 131.315 99.9792 127.866 99.9792 123.608V74.9997H116.646V123.608ZM108.334 49.9997C112.936 49.9999 116.667 53.7314 116.667 58.3337C116.667 62.9358 112.936 66.6665 108.334 66.6667C103.731 66.6667 99.9998 62.9359 99.9997 58.3337C99.9997 53.7313 103.731 49.9997 108.334 49.9997Z" fill="#D9D9D9"/>
</svg>
